<svg xmlns="http://www.w3.org/2000/svg" data-name="Layer 1" viewBox="0 0 222 222"><polygon fill="#ffece9" points="46.618 49.621 42.698 195.021 39.888 195.011 38.278 51.571 46.618 49.621"/><polygon fill="#ffece9" points="73.928 43.231 66.838 195.081 46.258 195.031 53.128 48.101 73.928 43.231"/><polygon fill="#ffece9" points="107.618 35.361 95.958 195.161 73.708 195.101 77.828 42.321 107.618 35.361"/><polygon fill="#ffece9" points="133.548 29.291 121.438 195.231 99.778 195.171 115.218 33.581 133.548 29.291"/><polygon fill="#ffece9" points="157.408 72.751 145.698 195.301 125.348 195.241 141.358 27.471 141.368 27.471 148.068 25.901 157.408 72.751"/><polygon fill="#ffece9" points="160.098 86.271 172.418 148.071 172.418 148.111 170.218 195.371 152.138 195.321 160.098 86.271"/><polygon fill="#ffece9" points="181.858 195.401 176.708 195.391 177.318 172.621 181.858 195.401"/><path fill="#fdd39d" d="M66.68035,113.42455c-5.4503-.1471-19.64645-.37876-20.37065-.80736-.7647-.4526-3.4275-4.4945-4.46789-5.5861-3.13841-3.2932-.37211,5.037-.37211,5.037a1.041,1.041,0,0,1-1.01989,1.2625q-4.27847.015-8.547.3649a.76373.76373,0,0,0-.35961,1.3935,6.31494,6.31494,0,0,0,1.9253.7621l4.7388,1.1856s-6.2583.6527-9.3194,1.367a1.50621,1.50621,0,0,0-.8137.3785,1.04921,1.04921,0,0,0,.2429,1.43,3.04617,3.04617,0,0,0,1.5121.524q4.42141.6921,8.8427,1.3841-3.3996.8418-6.7993,1.6838a2.99063,2.99063,0,0,0-1.5051.6924,1.03243,1.03243,0,0,0-.0153,1.4841,1.50014,1.50014,0,0,0,.9538.1789l9.1232-.3309q-2.63115,1.4664-5.2622,2.9329c-.7619.4246-1.6487,1.2349-1.2218,1.9954.9625,1.7144,9.9692-3.2363,14.5759-3.7308,2.1433-.2301,21.87367.48945,28.678.0542"/><path fill="#e9b77a" d="M66.68038,113.42455l10.51873,13.6557c-3.0083.19245-8.543.15906-13.96765.08191-.56787-1.47864-1.18652-2.99634-1.86425-4.51562a24.39484,24.39484,0,0,1-2.2212-9.40131C62.08,113.31713,64.8655,113.3756,66.68038,113.42455Z"/><path fill="#fdd39d" d="M155.31965,113.42455c5.4503-.1471,19.64645-.37876,20.37065-.80736.7647-.4526,3.4275-4.4945,4.46789-5.5861,3.13841-3.2932.37211,5.037.37211,5.037a1.041,1.041,0,0,0,1.01989,1.2625q4.27847.015,8.547.3649a.76373.76373,0,0,1,.35961,1.3935,6.31494,6.31494,0,0,1-1.9253.7621l-4.7388,1.1856s6.2583.6527,9.3194,1.367a1.50621,1.50621,0,0,1,.8137.3785,1.04921,1.04921,0,0,1-.2429,1.43,3.04617,3.04617,0,0,1-1.5121.524q-4.42142.6921-8.8427,1.3841,3.3996.8418,6.7993,1.6838a2.99063,2.99063,0,0,1,1.5051.6924,1.03243,1.03243,0,0,1,.0153,1.4841,1.50014,1.50014,0,0,1-.9538.1789l-9.1232-.3309q2.63115,1.4664,5.2622,2.9329c.7619.4246,1.6487,1.2349,1.2218,1.9954-.9625,1.7144-9.9692-3.2363-14.5759-3.7308-2.1433-.2301-21.87367.48945-28.678.0542"/><path fill="#e9b77a" d="M155.31962,113.42455l-10.51873,13.6557c3.0083.19245,8.543.15906,13.96765.08191.56787-1.47864,1.18652-2.99634,1.86425-4.51562a24.39484,24.39484,0,0,0,2.2212-9.40131C159.92,113.31713,157.1345,113.3756,155.31962,113.42455Z"/><path fill="#f49d1a" d="M114.15036,177.53094h13.76508l.01069.053a10.74638,10.74638,0,0,0,5.27067,7.29826c5.36278,2.98978,14.51234,7.48829,21.7555,7.96572H112.01157V179.66973A2.13879,2.13879,0,0,1,114.15036,177.53094Z"/><path fill="#f9bc40" d="M135.60787,177.531l8.65321,4.68763h7.54035a10.62932,10.62932,0,0,1,10.62932,10.62932H112.01156V179.66976a2.1388,2.1388,0,0,1,2.1388-2.1388Z"/><rect width="18.91" height="39.84" x="115.412" y="132.999" fill="#fdd39d"/><path fill="#5ba6e2" d="M115.45789,170.637H134.268a1.33989,1.33989,0,0,1,1.33989,1.33989v5.554a0,0,0,0,1,0,0H114.118a0,0,0,0,1,0,0v-5.554A1.33989,1.33989,0,0,1,115.45789,170.637Z"/><path fill="#5ba6e2" d="M113.67282,192.84791h46.66461a2,2,0,0,1,2,2v1.2497a0,0,0,0,1,0,0H111.67282a0,0,0,0,1,0,0v-1.2497A2,2,0,0,1,113.67282,192.84791Z" transform="rotate(-180 137.005 194.473)"/><path fill="#e42e21" d="M144.26108,182.21855h7.54028a10.62926,10.62926,0,0,1,10.6294,10.62933H144.26108Z"/><path fill="#e42e21" d="M144.26108,182.21855h7.54028a10.62926,10.62926,0,0,1,10.6294,10.62933H144.26108Z"/><path fill="#4481d1" d="M125.69821,196.09759H113.67282a2,2,0,0,1-2-2v-1.2497h15.87982A22.75542,22.75542,0,0,1,125.69821,196.09759Z"/><path fill="#4481d1" d="M157.31009,196.09759H113.67282a2,2,0,0,1-2-2v-1.2497H154.9523a16.93918,16.93918,0,0,0,2.45752,0A8.01437,8.01437,0,0,1,157.31009,196.09759Z"/><path fill="#c71b21" d="M154.9523,192.84789H144.26108v-2.69055A37.90425,37.90425,0,0,0,154.9523,192.84789Z"/><path fill="#fff" d="M160.06006,190.25781a.75028.75028,0,0,1-.6499-.374c-.02784-.04785-2.81934-4.77344-6.82764-5.05859a.74956.74956,0,0,1-.69482-.80079.769.769,0,0,1,.80126-.69531c4.80665.3418,7.89063,5.58008,8.01954,5.80274a.75092.75092,0,0,1-.64844,1.126Z"/><path fill="#4481d1" d="M111.67282,194.09759v-1.2497h46.40052a7.42851,7.42851,0,0,1-.15888,3.2497H113.67282A2,2,0,0,1,111.67282,194.09759Z"/><path fill="#f49d1a" d="M114.15036,177.53094h6.02912a7.455,7.455,0,0,0,.13964,4.44775,10.067,10.067,0,0,0,3.54615,4.613c7.926,6.02795,19.16748-2.43482,29.89746,3.43609a18.22009,18.22009,0,0,1,3.841,2.82007H112.01157V179.66973A2.1388,2.1388,0,0,1,114.15036,177.53094Z"/><path fill="#c71b21" d="M153.76273,190.02782a18.22009,18.22009,0,0,1,3.841,2.82007H144.26108v-5.00976A18.948,18.948,0,0,1,153.76273,190.02782Z"/><path fill="#e9b77a" d="M122.54569,157.04986c-1.21637,4.29712,1.04364,5.43066-.07709,12.15448a30.30835,30.30835,0,0,1-.847,3.63428h-6.20977V134.86706a19.69584,19.69584,0,0,1,3.3822-1.86841h15.52814v12.64508C126.07779,149.55779,123.44516,153.87231,122.54569,157.04986Z"/><path fill="#4481d1" d="M114.44815,171.12188c.01905-.02246.02887-.05194.04932-.07312a1.34528,1.34528,0,0,1,.91351-.40228c.01648-.00061.03028-.00946.04694-.00946h6.73028c-.64227,2.92865-1.55731,4.99444-2.00872,6.89392H114.118v-5.554a1.33344,1.33344,0,0,1,.10358-.51306A1.31831,1.31831,0,0,1,114.44815,171.12188Z"/><path fill="#f49d1a" d="M105.98538,177.53094H92.22031l-.01069.053a10.74636,10.74636,0,0,1-5.27068,7.29826c-5.36277,2.98978-14.51234,7.48829-21.7555,7.96572h42.94074V179.66973A2.13879,2.13879,0,0,0,105.98538,177.53094Z"/><path fill="#f9bc40" d="M84.52788,177.531l-8.65321,4.68763H68.33431A10.62932,10.62932,0,0,0,57.705,192.8479h50.41919V179.66976a2.1388,2.1388,0,0,0-2.1388-2.1388Z"/><rect width="18.91" height="39.84" x="85.814" y="132.999" fill="#fdd39d"/><path fill="#5ba6e2" d="M84.52788,170.637h21.48987a0,0,0,0,1,0,0v5.554a1.33989,1.33989,0,0,1-1.33989,1.33989H85.86777a1.33989,1.33989,0,0,1-1.33989-1.33989v-5.554a0,0,0,0,1,0,0Z" transform="rotate(-180 95.273 174.084)"/><path fill="#5ba6e2" d="M57.79831,192.84791h50.66461a0,0,0,0,1,0,0v1.2497a2,2,0,0,1-2,2H59.79831a2,2,0,0,1-2-2v-1.2497A0,0,0,0,1,57.79831,192.84791Z"/><path fill="#e42e21" d="M75.87467,182.21855H68.33438A10.62926,10.62926,0,0,0,57.705,192.84788H75.87467Z"/><path fill="#e42e21" d="M75.87467,182.21855H68.33438A10.62926,10.62926,0,0,0,57.705,192.84788H75.87467Z"/><path fill="#4481d1" d="M94.43753,196.09759h12.02539a2,2,0,0,0,2-2v-1.2497H92.5831A22.75734,22.75734,0,0,0,94.43753,196.09759Z"/><path fill="#4481d1" d="M62.82565,196.09759h43.63727a2,2,0,0,0,2-2v-1.2497H65.18344a16.93918,16.93918,0,0,1-2.45752,0A8.01437,8.01437,0,0,0,62.82565,196.09759Z"/><path fill="#c71b21" d="M65.18344,192.84789H75.87467v-2.69055A37.9044,37.9044,0,0,1,65.18344,192.84789Z"/><path fill="#fff" d="M60.07568,190.25781a.75092.75092,0,0,1-.64843-1.126c.1289-.22266,3.21289-5.46094,8.01953-5.80274a.76125.76125,0,0,1,.80127.69531.74958.74958,0,0,1-.69483.80079c-4.0083.28515-6.7998,5.01074-6.82763,5.05859A.74972.74972,0,0,1,60.07568,190.25781Z"/><path fill="#4481d1" d="M108.46292,194.09759v-1.2497H62.06241a7.42836,7.42836,0,0,0,.15887,3.2497h44.24164A2,2,0,0,0,108.46292,194.09759Z"/><path fill="#f49d1a" d="M105.98538,177.53094H99.95627a7.45489,7.45489,0,0,1-.13965,4.44775,10.067,10.067,0,0,1-3.54614,4.613c-7.926,6.02795-19.16748-2.43482-29.89746,3.43609a18.22022,18.22022,0,0,0-3.841,2.82007h45.59217V179.66973A2.13881,2.13881,0,0,0,105.98538,177.53094Z"/><path fill="#c71b21" d="M66.373,190.02782a18.22022,18.22022,0,0,0-3.841,2.82007H75.87467v-5.00976A18.948,18.948,0,0,0,66.373,190.02782Z"/><path fill="#e9b77a" d="M97.59006,157.04986c1.21637,4.29712-1.04364,5.43066.07709,12.15448a30.30846,30.30846,0,0,0,.847,3.63428h6.20978V134.86706a19.69622,19.69622,0,0,0-3.3822-1.86841H85.81357v12.64508C94.058,149.55779,96.69058,153.87231,97.59006,157.04986Z"/><path fill="#4481d1" d="M105.68759,171.12188c-.019-.02246-.02887-.05194-.04931-.07312a1.34529,1.34529,0,0,0-.91352-.40228c-.01648-.00061-.03027-.00946-.04693-.00946H97.94754c.64227,2.92865,1.55731,4.99444,2.00873,6.89392h6.06146v-5.554a1.33343,1.33343,0,0,0-.10357-.51306A1.31834,1.31834,0,0,0,105.68759,171.12188Z"/><path fill="#f73a5a" d="M110.55449,152.90568c10.3756-5.32782,20.61924-10.67,26.14266-14.99576,10.623-8.31961,16.60694-13.006,20.51706-21.84074,1.51921-3.43274,5.69039-13.24867,2.31652-24.819-.88719-3.04269-3.73474-12.808-13.56769-18.20062-9.8252-5.3883-19.67128-2.59735-22.50267-1.65459a29.97654,29.97654,0,0,0-12.90588,8.60391A29.97649,29.97649,0,0,0,97.64862,71.395c-2.83139-.94276-12.67747-3.73371-22.50268,1.65459C65.313,78.44214,62.46545,88.20747,61.57826,91.25016c-3.37387,11.57035.79731,21.38628,2.31652,24.819,3.91012,8.83478,9.894,13.52113,20.51706,21.84074C89.93526,142.23569,100.1789,147.57786,110.55449,152.90568Z"/><path fill="#db2d4e" d="M159.53064,91.25016a33.03483,33.03483,0,0,0-5.7489-11.58123c2.22132,10.53045-1.48657,19.26574-2.90149,22.46264-3.91015,8.83478-9.894,13.52112-20.51709,21.84076q-.41424.32443-.86332.65636a42.65388,42.65388,0,0,1-50.55826.00016q-.44892-.33193-.86357-.65652c-7.69983-6.03021-12.95447-10.15723-16.75672-15.33307a43.09761,43.09761,0,0,0,2.57349,7.42993c3.91,8.83478,9.894,13.52112,20.51709,21.8407,5.52331,4.32581,15.767,9.668,26.1427,14.99579,10.37549-5.32782,20.61914-10.67,26.14258-14.99579,10.623-8.31958,16.60693-13.00592,20.51709-21.8407C158.7334,112.63645,162.90467,102.82048,159.53064,91.25016Z"/><path fill="#f95f81" d="M65.3979 89.55039a10.87649 10.87649 0 00-3.48193.57751c-.1333.42889-.24878.81726-.33765 1.12225a34.04889 34.04889 0 00.32813 19.5365A10.90565 10.90565 0 1065.3979 89.55039zM159.04292 111.30777a34.21126 34.21126 0 00.48779-20.05762c-.12329-.42266-.28979-.98529-.50219-1.63763a10.90793 10.90793 0 00.0144 21.69525z"/><path fill="#d65476" d="M160.79121,99.25534q-.0216-.70285-.07568-1.42267c-.01123-.14965-.02075-.2984-.03418-.44915-.053-.59577-.12085-1.19849-.21045-1.80939-.01465-.10108-.03491-.204-.05078-.30542q-.12268-.78616-.291-1.58753c-.03515-.16967-.071-.33935-.10937-.50994-.14331-.63508-.30054-1.2743-.489-1.92109l-.00512-.017c-.11866-.40668-.27808-.943-.478-1.56012l-.02-.06043a10.8371,10.8371,0,0,0-4.94092,1.8111,41.06124,41.06124,0,0,1-3.2063,10.70782c-.30639.6922-.63061,1.35126-.96362,1.99628a10.91059,10.91059,0,0,0,9.12622,7.17993l.00049-.00177c.05981-.18811.11841-.38623.17749-.5816.06006-.19855.11938-.40015.178-.60614.05444-.19123.10864-.38367.16162-.58112.09424-.35187.186-.712.27392-1.08282.03809-.15985.07325-.32508.10987-.48828q.10729-.4801.20532-.97858.05054-.25956.09839-.52417.10511-.58309.19433-1.18933c.01392-.09467.03052-.18585.04371-.28131.06738-.48951.123-.993.17138-1.50336.01489-.15674.02735-.31574.04-.47437q.052-.641.08032-1.30157c.00513-.12329.01319-.24445.01734-.36871q.026-.82416.00976-1.67682C160.80244,99.53146,160.79561,99.39273,160.79121,99.25534Z"/><ellipse cx="102.29" cy="78.792" fill="#fff" rx="1.412" ry="1.765" transform="rotate(-64.519 102.29 78.792)"/><ellipse cx="100.584" cy="143.479" fill="#fff" rx="1.412" ry="1.765" transform="rotate(-57.728 100.584 143.479)"/><path fill="#fff" d="M71.311 86.792a1.0006 1.0006 0 01-.89356-1.44726c.084-.168 8.62012-16.751 26.27539-9.47754a1.00016 1.00016 0 11-.76172 1.84961c-15.91894-6.55469-23.41406 7.90429-23.7251 8.52343A1.0013 1.0013 0 0171.311 86.792zM95.811 141.292a.99138.99138 0 01-.48487-.126C77.27539 131.1377 70.7002 119.043 70.4292 118.5332a1 1 0 011.76514-.94043c.06445.12012 6.60742 12.10547 24.10351 21.8252a1.00007 1.00007 0 01-.48681 1.874z"/><path fill="#333" d="M134.679,101.74517c-17.67917,18.98067-34.1305,13.49284-41.4771,9.32253,0,0,4.12121,5.24065,4.49484,9.37713s-1.16847,12.525-.69752,13.3488,1.63461,4.42024,16.66244,4.44938,13.84144-4.8995,13.854-6.33388-.01722-19.0256,3.493-24.45816C133.34578,103.834,134.679,101.74517,134.679,101.74517Z"/><ellipse cx="100.508" cy="100.12" fill="#fffdfe" rx="8.327" ry="7.309" transform="rotate(-89.498 100.509 100.12)"/><ellipse cx="119.714" cy="98.335" fill="#fffdfe" rx="10.28" ry="11.988" transform="rotate(-89.498 119.714 98.335)"/><path fill="#333" d="M89.56949 93.08185a15.58355 15.58355 0 013.19263-2.86676 17.57013 17.57013 0 013.8959-1.95758 10.54168 10.54168 0 014.33762-.86408 8.65309 8.65309 0 014.22552 1.28858l-.04272.19537a19.35567 19.35567 0 01-2.12488.28613c-.68418.09961-1.34723.11487-2.00461.22919-1.30341.15772-2.63315.12164-3.95087.40314a16.2625 16.2625 0 00-3.84149 1.28845 17.256 17.256 0 00-3.54165 2.13483zM108.83676 87.23145a15.62459 15.62459 0 015.65112-2.876 19.32639 19.32639 0 016.34183-.5484 21.3588 21.3588 0 016.231 1.18811l1.46912.58661 1.38922.74725.68594.37781.63809.45709 1.25656.92108-.11673.16242a20.34833 20.34833 0 00-11.55322-2.8404 57.37577 57.37577 0 00-5.89108.897c-1.97031.32629-3.93646.73449-6.01117 1.10571zM100.49219 108.94727h-.061c-4.30566-.03809-7.77392-4.0293-7.73144-8.89551.04248-4.86719 3.53662-8.81836 7.88574-8.75879 4.30566.03711 7.77393 4.02734 7.73144 8.89453v.001C108.27441 105.03223 104.76953 108.94727 100.49219 108.94727zm.03222-16.6543c-3.73046 0-6.78711 3.47168-6.8247 7.76758-.0376 4.31445 2.98633 7.85351 6.74023 7.88672h.05225c3.73047 0 6.78711-3.47168 6.8247-7.76856.0376-4.31543-2.98584-7.85351-6.74023-7.88574z"/><path fill="#333" d="M119.74951,109.11621c-.043,0-.08594-.001-.12939-.001-6.88574-.06054-12.4458-4.94531-12.39356-10.88867a10.02781,10.02781,0,0,1,3.75244-7.61621,13.46381,13.46381,0,0,1,8.7002-3.05566c.043,0,.08594.001.12939.001a13.4816,13.4816,0,0,1,8.77491,3.208,9.77937,9.77937,0,0,1-.13379,15.29688A13.46477,13.46477,0,0,1,119.74951,109.11621Zm-.07031-20.56152a12.46279,12.46279,0,0,0-8.05615,2.82031,9.04311,9.04311,0,0,0-3.39649,6.85938c-.04736,5.39257,5.06787,9.82519,11.40235,9.88085a12.47615,12.47615,0,0,0,8.17627-2.81933,9.04361,9.04361,0,0,0,3.397-6.85938h0a9.042,9.042,0,0,0-3.27637-6.91894,12.47367,12.47367,0,0,0-8.126-2.96192C119.75977,88.55566,119.71924,88.55469,119.6792,88.55469Z"/><circle cx="103.431" cy="100.404" r="2.211" fill="#333"/><circle cx="103.972" cy="99.293" r=".762" fill="#fffdfe"/><circle cx="118.665" cy="101.246" r="4.098" fill="#333"/><circle cx="119.904" cy="99.216" r="1.358" fill="#fffdfe"/><path fill="#fffdfe" d="M101.13671,122.84605l-.09239-2.43967.679,2.41383s4.50486.39807,5.22282.30187a27.12562,27.12562,0,0,1-4.66708.57388l-.57323,1.12214-.19466-1.18008-1.49338-.1155a68.03593,68.03593,0,0,1-3.02543,10.24611c.00287.006.00372.01963.00687.025.471.8238,1.63469,4.42023,16.66234,4.44934,15.02793.02917,13.84144-4.89947,13.854-6.33386.00243-.27758.00367-1.165.02894-2.44744a31.06759,31.06759,0,0,0-1.98645-8.021l-2.50213,1.00275.06059.88851-.5755-.58567s-5.13026.80893-7.0064.55347c0,0,5.74788-1.14513,6.36551-1.48125l1.32394-2.95983.0458,2.562s1.46813.06406,2.30972-2.43887c.75055-2.2321,2.5207-8.96348,5.07915-10.92335.11279-.21518.22882-.42013.35-.60752,2.337-3.617,3.67026-5.70578,3.67026-5.70578-17.67913,18.9807-34.13058,13.49284-41.4771,9.3225A41.33868,41.33868,0,0,1,100.08722,122.76Z"/><path fill="#333" d="M89.26407,108.34912a37.813,37.813,0,0,0,11.54486,4.80744,32.4095,32.4095,0,0,0,6.11517.799,27.37833,27.37833,0,0,0,6.11679-.42408,34.38137,34.38137,0,0,0,11.5131-4.296,63.06306,63.06306,0,0,0,10.125-7.49035,39.38247,39.38247,0,0,1-9.29856,8.81427,32.40573,32.40573,0,0,1-5.71521,3.10882,30.57041,30.57041,0,0,1-6.28689,1.83338,28.89658,28.89658,0,0,1-24.11429-7.15253Z"/><path fill="#333" d="M134.61777,101.82422c-.71378.73871-1.34928,1.52582-1.92389,2.22211-.29151.352-.58081.69024-.87747,1.02429-.27994.3341-.68943.66168-1.02866.99353l-2.15546,1.97357c-.75253.61859-1.54593,1.19159-2.32864,1.77887a33.67857,33.67857,0,0,1-10.55035,5.19611,26.82134,26.82134,0,0,1-11.80478.62652l-1.45865-.28039c-.48154-.11176-.95526-.25715-1.432-.38422-.96039-.233-1.87851-.6004-2.80658-.9231a35.06237,35.06237,0,0,1-5.26581-2.60229l.56134-.65259a36.0583,36.0583,0,0,1,2.94831,4.9223,13.58986,13.58986,0,0,1,1.56454,5.53607c.0903,3.82306-.43277,7.617-.57452,11.33393.00317.2193-.00434.45978.015.65356.01169.07288.01438.245.03006.23554.00434.00354.00049.00738-.00882.017l.09537.16589a3.29654,3.29654,0,0,0,.76385.93945,6.77634,6.77634,0,0,0,2.24839,1.22174,22.31559,22.31559,0,0,0,5.338,1.11921,66.52967,66.52967,0,0,0,11.13788.18182,27.25,27.25,0,0,0,5.36609-.85095,8.11053,8.11053,0,0,0,1.23083-.41327,6.72743,6.72743,0,0,0,1.11524-.54108,3.53044,3.53044,0,0,0,1.44861-1.53528,2.63187,2.63187,0,0,0,.21136-1.01465l.00531-1.3919.07483-2.85187c.06756-1.90051.20062-3.79877.35474-5.69574a61.65681,61.65681,0,0,1,1.87191-11.3009,22.60373,22.60373,0,0,1,.99588-2.73719,9.846,9.846,0,0,1,.6977-1.3092,12.8568,12.8568,0,0,1,.77557-1.11517C132.28738,104.96411,133.50369,103.51819,134.61777,101.82422Zm.12246-.15814c-.92968,1.48333-1.7572,3.21466-2.76657,4.99005-.23077.43121-.53982.89319-.71585,1.29211a8.87943,8.87943,0,0,0-.54834,1.23065,21.55935,21.55935,0,0,0-.75879,2.64539,75.14357,75.14357,0,0,0-1.213,11.12683c-.09131,1.8728-.13245,3.74909-.16275,5.62512l-.0191,2.814.02133,1.44086a4.75515,4.75515,0,0,1-.33661,1.74578,5.45,5.45,0,0,1-2.30835,2.56409,8.80052,8.80052,0,0,1-1.42883.6947,10.02724,10.02724,0,0,1-1.45255.48511,11.76555,11.76555,0,0,1-1.45737.34222c-.48684.091-.97375.18952-1.45831.23145l-1.45465.16626-1.44824.0824c-1.92981.10248-3.84659.072-5.75385.00714a49.80381,49.80381,0,0,1-5.73391-.5022,23.46412,23.46412,0,0,1-5.66776-1.45123,8.08826,8.08826,0,0,1-2.59329-1.6518,4.59067,4.59067,0,0,1-.93527-1.30908l-.07175-.1463a2.59853,2.59853,0,0,1-.1022-.32458,2.14062,2.14062,0,0,1-.04151-.4668c-.00723-.27753.01725-.51.02957-.76221.36249-3.81665,1.11783-7.51416,1.06849-11.26062a11.82026,11.82026,0,0,0-1.50888-5.27124,27.06843,27.06843,0,0,0-3.0647-4.66528l-1.335-1.64063,1.89633.988a34.229,34.229,0,0,0,5.25229,2.16693c.91171.24988,1.80838.54443,2.7381.70459.46163.09076.919.2,1.38192.27576l1.3963.17486a29.86892,29.86892,0,0,0,11.12388-.66632,36.55334,36.55334,0,0,0,10.2807-4.58117c.78472-.533,1.60717-1.01722,2.38235-1.57062l2.268-1.75c.38238-.30585.76077-.54352,1.148-.90656.38684-.34527.781-.6864,1.173-1.01373C133.35553,102.8576,134.087,102.28607,134.74023,101.66608Z"/></svg>