<svg xmlns="http://www.w3.org/2000/svg" data-name="Layer 1" viewBox="0 0 512 512"><defs><clipPath id="a"><rect width="429.12" height="285.185" x="41.44" y="153.928" fill="none"/></clipPath></defs><rect width="429.12" height="285.185" x="41.44" y="153.928" fill="#facbb6"/><g clip-path="url(#a)"><path fill="none" stroke="#fff" stroke-miterlimit="10" stroke-width="4" d="M42.43582,247.5728s93.56484-104.62828,188.26952-78.23414S417.859,267.272,470.55582,273.01959"/><path fill="none" stroke="#fff" stroke-miterlimit="10" stroke-width="4" d="M145.29146,133.87326S106.51394,164.87792,110.85,273.01959,87.15582,516.8528,87.15582,516.8528"/><path fill="none" stroke="#fff" stroke-miterlimit="10" stroke-width="4" d="M41.43582,519.59208s157.91353-188.156,269.90386-207.04763S470.55582,131.64432,470.55582,131.64432"/><path fill="none" stroke="#fff" stroke-miterlimit="10" stroke-width="4" d="M271.13524 129.03152S331.17 274.9328 355.65 351.2528s112.32 82.08 112.32 82.08M470.73747 325.6182s-350.03254 89.74394-429.12 18.08927"/><rect width="429.12" height="387.948" x="41.436" y="131.644" fill="none"/></g><g clip-path="url(#a)"><path fill="#ed9a72" d="M56.59288,519.59281h398c-19.21-95.65-36.04-150.05-36.04-150.05-4.96-29.73-27.87-39.33-27.87-39.33l-53.98-16.81-24.17005-7.52-.41-.13a28.06518,28.06518,0,0,1-9.31-4.95,1.45559,1.45559,0,0,1-.13-.1c-.04-.04-.08-.07-.12-.11-.29-.23-.58-.47-.86-.74a28.21919,28.21919,0,0,1-6.42005-8.3,28.69307,28.69307,0,0,1-2.34-6.34v-.04c-.1-.44-.19-.87006-.27-1.31006-.04-.22-.08-.43994-.12-.67-.04-.22-.07-.44-.1-.66-.05-.32-.08-.64-.11005-.96-.02-.16-.04-.32-.05-.48-.05-.48-.07995-.97-.09-1.46-.01-.32-.02-.64-.02-.97v-37.97h-70.99v37.97a28.23631,28.23631,0,0,1-2.9,12.49,28.62111,28.62111,0,0,1-6.36,8.49c-.11.1-.23.2-.35.3l-.03.03-.06.06a28.06624,28.06624,0,0,1-9.44,5.45c-.26.1-.53.19-.8.27l-23.37,7.28-55.19,17.18c-.23.11-.47.22-.7.34-21.55,10.5-29.25,38.99-29.25,38.99h-.11S75.79289,423.94278,56.59288,519.59281Z"/><path fill="#b86a55" d="M265.24941,281.08286c-25.31785-4.41314-44.05712-33.74558-44.05712-33.74558s25.10851-2.06732,40.81154-6.64238H292.1802v37.96968a28.34857,28.34857,0,0,0,.76477,6.50754l.00071.0397S290.56757,285.496,265.24941,281.08286Z"/><path fill="#e9966e" d="M196.45746,159.70005a11.02332,11.02332,0,0,1,4.71873.10932c5.506-38.01379,28.352-66.52145,55.71136-66.52145,27.43557,0,50.33641,28.66424,55.761,66.83681a11.22758,11.22758,0,0,1,5.75333-.42468c8.47184,1.68423,13.31169,13.24948,10.81025,25.83137-2.41387,12.14178-10.78174,20.76358-18.9776,19.8405-8.045,29.79714-18.8693,52.70806-39.61682,56.5584-5.577,1.035-10.53223-2.24862-14.96885-2.24862-4.38984,0-9.69587,3.77352-13.37115,2.45038-22.25111-8.01061-31.40572-27.00177-38.98409-56.69148-7.75291-.091-15.36342-8.42521-17.64654-19.90918C183.14561,172.94953,187.98563,161.38428,196.45746,159.70005Z"/><ellipse cx="195.274" cy="181.863" fill="#b86a55" rx="5.426" ry="13.517" transform="rotate(-7.282 195.274 181.863)"/><ellipse cx="318.612" cy="181.863" fill="#b86a55" rx="13.517" ry="5.426" transform="rotate(-82.718 318.612 181.863)"/><path fill="#b86a55" d="M312.64853 160.12475a90.63866 90.63866 0 011.19824 11.34985c.20594 3.79554.20954 7.597.08588 11.39863a105.66634 105.66634 0 01-1.01166 11.37622 53.77828 53.77828 0 01-2.68646 11.12249c.30658-3.80767.49512-7.55676.68188-11.3161l.23035-5.63775c.07092-1.87983.1698-3.75818.20844-5.64112l.48535-11.30151C312.02524 167.70159 312.25479 163.92431 312.64853 160.12475zM200.8555 160.12475c.39374 3.79956.62329 7.57684.808 11.35071l.48536 11.30151c.03863 1.88294.13751 3.76129.20843 5.64112l.23035 5.63775c.18676 3.75934.3753 7.50843.68188 11.3161a53.78224 53.78224 0 01-2.68652-11.12249 105.697 105.697 0 01-1.01166-11.37622c-.1236-3.80164-.12-7.60309.08588-11.39863A90.65 90.65 0 01200.8555 160.12475z"/><path fill="#350313" d="M182.737,137.91992a12.51041,12.51041,0,0,1,4.54639-9.65971c.02363-.14688.0545-.28787.07876-.434a12.53441,12.53441,0,0,1,6.63482-22.1934,12.49961,12.49961,0,0,1,14.676-16.43338c-.00315-.117-.01764-.23109-.01764-.34891a12.52842,12.52842,0,0,1,22.38069-7.7474,12.50846,12.50846,0,0,1,19.97125.37947c.78824-.02646,1.56891-.04095,2.34392-.04757a12.52154,12.52154,0,0,1,23.80469,1.44258,12.53654,12.53654,0,0,1,19.522,10.4103c0,.32962-.02426.65317-.04915.9764a12.52139,12.52139,0,0,1,16.70487,15.62774,12.4915,12.4915,0,0,1,10.01461,16.57452,12.4868,12.4868,0,0,1-.19407,16.92635c-.02205.262-.04.53124-.06332.79a12.5154,12.5154,0,0,1-3.968,20.08442c-3.427,10.51482-7.58215,15.23362-7.58215,15.23362s.18115-6.064-.33615-14.4709a12.52045,12.52045,0,0,1-5.89951-21.20731,12.46287,12.46287,0,0,1-3.09121-13.18048,12.55718,12.55718,0,0,1-1.70816-2.4041,12.502,12.502,0,0,1-17.63961-2.96771,12.4741,12.4741,0,0,1-14.36693-2.6974,12.50753,12.50753,0,0,1-17.9222,6.40751,12.51866,12.51866,0,0,1-23.05615,6.09594,12.5301,12.5301,0,0,1-11.71458,8.10213,12.53859,12.53859,0,0,1-8.70938,11.93684,12.47959,12.47959,0,0,1-2.98378,13.02706c-1.286,7.4889-2.19523,13.465-2.19523,13.465s-2.50081-4.0843-5.47892-9.87544c-.384.03545-.77154.05884-1.165.05884a12.52808,12.52808,0,0,1-7.74157-22.38487q-.23439-1.00268-.41081-1.974A12.499,12.499,0,0,1,182.737,137.91992Z"/><path fill="#38101b" d="M274.075 177.57755c4.98193 0 4.99018-7.74251 0-7.74251-4.98194 0-4.99019 7.74251 0 7.74251zM221.52912 177.57755c4.98194 0 4.99019-7.74251 0-7.74251-4.98193 0-4.99019 7.74251 0 7.74251z"/><path fill="#38101b" d="M304.009 170.09185a65.29893 65.29893 0 01-10.048 1.09967c-1.65021.07343-3.28827.11219-4.90454.14661-1.61023.03918-3.22418.04083-4.675.17065a61.29163 61.29163 0 01-10.103-.14648 48.18747 48.18747 0 01-9.98852-1.89282 56.0203 56.0203 0 019.90094-2.16486c3.279-.45758 6.60974-.70807 9.77045-.93878a32.37539 32.37539 0 015.26513.09113c1.69672.15484 3.3692.3825 5.02515.70031A43.83513 43.83513 0 01304.009 170.09185zM250.32761 166.84307a44.93352 44.93352 0 00-4.94269-2.10369 42.55709 42.55709 0 00-4.90015-1.47754 40.12914 40.12914 0 00-19.64557.04943c-3.335.76563-6.68408 1.79236-10.23065 2.90937A25.27635 25.27635 0 01219.486 159.481a25.99421 25.99421 0 0111.199-2.57434 26.36639 26.36639 0 0111.19287 2.56189 22.43844 22.43844 0 014.78967 3.10126A15.97679 15.97679 0 01250.32761 166.84307zM229.50931 171.30841a62.65257 62.65257 0 01-8.02905.138c-1.28223-.02344-2.55-.05359-3.80341.0213a17.31341 17.31341 0 00-3.90222.56744 6.45145 6.45145 0 013.49683-2.55585 12.02893 12.02893 0 014.25793-.61248 15.79324 15.79324 0 014.15771.63958A12.4118 12.4118 0 01229.50931 171.30841z"/><path fill="#3f3f3f" d="M57.26292,519.59281h398.14c-19.23-95.87-36.11-150.42-36.11-150.42-4.96-29.73-27.87-39.33-27.87-39.33l-56.03-17.44h-.01l-22.52-7.01-.33.49-12.44,18.62-5.16,7.72-7.43,11.12-4.41,6.6-12.25,18.33-12.15,18.18-12.59-18-13.92-19.9-7.1-10.15-6.3-9.01-7.04-10.03v-.03l-9.69-13.85-.06-.09-24.05,7.49h-.01l-54.5,16.96c-.49.23-.97.46-1.44.71-20.98,10.78-28.51,38.62006-28.51,38.62006h-.11S76.4929,423.72281,57.26292,519.59281Z"/><polygon fill="#e8e9ea" points="302.967 299.526 291.535 398.992 257.126 465.26 212.47 373.906 211.481 299.526 257.198 311.642 302.967 299.526"/><polygon fill="#577fff" points="266.122 343.289 283.45 434.941 257.126 465.26 238.551 443.812 248.901 340.459 266.122 343.289"/><polygon fill="#d2d3d5" points="299.959 289.087 302.921 299.567 284.466 351.969 257.126 311.642 299.959 289.087"/><polygon fill="#d2d3d5" points="214.365 289.087 211.404 299.567 229.858 351.969 257.198 311.642 214.365 289.087"/><path fill="#577fff" d="M275.19973,338.30125s-19.791,16.094-35.17564-1.32661l17.17435-25.33217Z"/><path fill="#595959" d="M302.96716 299.52585L336.49174 312.843l10.14319 27.56334-30.66035 7.06777 20.51716 26.37307L257.126 465.26005S285.62394 373.854 302.96716 299.52585zM211.481 299.52585L177.95639 312.843l-10.14318 27.56334 30.66034 7.06777-20.51716 26.37307 79.16959 91.4129S228.82419 373.854 211.481 299.52585z"/><polygon fill="#595959" points="393.53 467.288 393.593 519.593 388.376 467.557 393.53 467.288"/><polygon fill="#595959" points="121.871 467.55 116.653 519.593 116.715 467.296 121.871 467.55"/><path fill="#38101b" d="M256.18611,239.89582l.2069-.0248a4.276,4.276,0,0,1,2.95522.721c34.93963,24.38423,52.49828-57.763,52.49828-57.763,1.30631,46.87584-20.17563,78.57923-40.92315,82.42906-5.577,1.03524-10.53222-2.24815-14.96882-2.24815-4.38982,0-9.54081,3.216-13.37116,2.44978-23.145-4.63-44.35071-46.19166-40.42065-88.941-4.09372,44.52952,43.64861,73.16186,48.8023,65.53551C251.86832,240.71752,254.58432,240.08783,256.18611,239.89582Z"/><path fill="#38101b" d="M263.3882,221.95576s2.78731,9.34692,0,14.429-9.7221,4.43036-11.22664-.00038c-1.74206-5.13023.77425-15.59.77425-15.59Z"/><path fill="#d7645d" d="M279.40186,217.76974s-11.56346,15.14735-24.93618,12.9899-19.72957-15.32589-19.72957-15.32589Z"/><path fill="#350313" d="M256.79666,200.95715a26.32337,26.32337,0,0,0,9.824,2.95672,39.31111,39.31111,0,0,0,4.20233.20221c.35315-.01123.69983.00061,1.0451.01117.53534.024,1.11151.08454,1.66724.12976a24.13816,24.13816,0,0,1,3.27856.57251,24.59205,24.59205,0,0,1,5.95563,2.41187,23.555,23.555,0,0,1,5.01447,3.74774,21.41545,21.41545,0,0,1,3.83911,4.97174,15.48087,15.48087,0,0,1,1.29144,2.99439,10.21707,10.21707,0,0,1,.37268,1.64648c.02429.30774.03205.60907.03052.88837a2.38559,2.38559,0,0,1-.17255.84851,3.53944,3.53944,0,0,0-.65277-.42542c-.23749-.11-.45941-.20221-.67633-.28015-.4873-.17145-.89068-.31933-1.36163-.46155-.459-.1347-.87232-.28509-1.33515-.40527-.4411-.12994-.856-.27246-1.3081-.38385l-4.97955-1.4599c-3.18665-.96466-6.162-1.83179-8.96369-2.58734-.69708-.13422-1.39783-.382-2.077-.49024-.3462-.08038-.67188-.14556-1.03846-.24713-.5567-.11432-1.11194-.22729-1.66076-.36334a18.51122,18.51122,0,0,1-6.26331-2.80884,15.61462,15.61462,0,0,1-4.6178-5.03387,12.21619,12.21619,0,0,1-1.22668-3.11969A8.31772,8.31772,0,0,1,256.79666,200.95715Z"/><path fill="#350313" d="M257.954,200.95715a8.31772,8.31772,0,0,1-.18725,3.31488,12.21568,12.21568,0,0,1-1.22663,3.11969,15.61537,15.61537,0,0,1-4.61786,5.03387,18.51117,18.51117,0,0,1-6.2633,2.80884c-.54883.136-1.10407.249-1.66077.36334-.36658.10157-.69226.16675-1.03845.24713-.6792.10822-1.38.356-2.077.49024-2.80157.75555-5.777,1.62268-8.96368,2.58734l-4.97956,1.4599c-.45208.11139-.867.25391-1.3081.38385-.46277.12018-.8761.27057-1.33514.40527-.471.14222-.87433.2901-1.36164.46155-.21686.07794-.43884.17017-.67633.28015a3.54376,3.54376,0,0,0-.65277.42542,2.386,2.386,0,0,1-.17255-.84851c-.00152-.2793.00623-.58063.03052-.88837a10.231,10.231,0,0,1,.37268-1.64648,15.48459,15.48459,0,0,1,1.29145-2.99439,21.41491,21.41491,0,0,1,3.83911-4.97174,23.55488,23.55488,0,0,1,5.01446-3.74774,24.59336,24.59336,0,0,1,5.95563-2.41187,24.13816,24.13816,0,0,1,3.27856-.57251c.55573-.04522,1.1319-.10577,1.66724-.12976.34528-.01056.692-.0224,1.04511-.01117a39.31136,39.31136,0,0,0,4.20233-.20221A26.32328,26.32328,0,0,0,257.954,200.95715Z"/><path fill="#b86a55" d="M244.48672,199.36039a21.52884,21.52884,0,0,0,13.14936,6.29724c-.15485.02581-.3097.03871-.46455.05161h.9291c-.15485-.0129-.3097-.0258-.46455-.05161a21.463,21.463,0,0,0,12.98161-6.11659Z"/></g><path fill="#e9966e" d="M196.14927,159.1374a11.023,11.023,0,0,1,4.71872.10932c5.506-38.01379,28.352-66.52146,55.71136-66.52146,27.43558,0,50.33641,28.66424,55.761,66.83682a11.22743,11.22743,0,0,1,5.75332-.42468c8.47184,1.68422,13.3117,13.24947,10.81025,25.83137-2.41386,12.14178-10.78174,20.76357-18.97759,19.8405-8.045,29.79713-18.86931,52.70806-39.61682,56.55839-5.577,1.035-10.53223-2.24862-14.96886-2.24862-4.38983,0-9.69587,3.77353-13.37115,2.45039-22.2511-8.01062-31.40572-27.00178-38.98409-56.69148-7.75291-.091-15.36342-8.42522-17.64654-19.90918C182.83742,172.38687,187.67743,160.82162,196.14927,159.1374Z"/><ellipse cx="194.966" cy="181.3" fill="#b86a55" rx="5.426" ry="13.517" transform="rotate(-7.282 194.966 181.3)"/><ellipse cx="318.304" cy="181.3" fill="#b86a55" rx="13.517" ry="5.426" transform="rotate(-82.718 318.304 181.3)"/><path fill="#b86a55" d="M312.34036 159.56207a90.66308 90.66308 0 011.19825 11.34985c.20587 3.79553.20953 7.597.08587 11.39868a105.69578 105.69578 0 01-1.01166 11.37622 53.78071 53.78071 0 01-2.68652 11.12244c.30664-3.80762.49512-7.55676.68189-11.316l.2304-5.63776c.07093-1.87982.16974-3.75824.20838-5.64111l.48541-11.30151C311.71707 167.13891 311.94663 163.36163 312.34036 159.56207zM200.54727 159.56207c.39374 3.79956.62329 7.57684.808 11.35077l.48541 11.30151c.03863 1.88287.13745 3.76129.20837 5.64111l.23041 5.63776c.18671 3.75928.37524 7.50842.68189 11.316a53.77626 53.77626 0 01-2.68653-11.12244 105.6677 105.6677 0 01-1.01166-11.37622c-.12365-3.80169-.12-7.60315.08588-11.39868A90.6518 90.6518 0 01200.54727 159.56207z"/><path fill="#350313" d="M182.42884,137.35727a12.51037,12.51037,0,0,1,4.54639-9.65971c.02363-.14689.05451-.28787.07876-.434a12.53442,12.53442,0,0,1,6.63482-22.19341,12.49961,12.49961,0,0,1,14.676-16.43338c-.00315-.117-.01764-.23108-.01764-.34891a12.52842,12.52842,0,0,1,22.3807-7.74739A12.50843,12.50843,0,0,1,250.6991,80.92c.78824-.02647,1.56892-.041,2.34392-.04758a12.52154,12.52154,0,0,1,23.8047,1.44259,12.53652,12.53652,0,0,1,19.522,10.4103c0,.32961-.02426.65316-.04915.9764a12.52139,12.52139,0,0,1,16.70487,15.62774A12.49147,12.49147,0,0,1,323.04,125.90394a12.48678,12.48678,0,0,1-.19407,16.92634c-.02205.262-.04.53125-.06332.79005a12.51541,12.51541,0,0,1-3.968,20.08443c-3.427,10.51481-7.58215,15.23362-7.58215,15.23362s.18115-6.064-.33615-14.4709a12.52046,12.52046,0,0,1-5.89951-21.20732,12.46287,12.46287,0,0,1-3.09121-13.18048,12.55687,12.55687,0,0,1-1.70816-2.4041,12.502,12.502,0,0,1-17.63961-2.96771,12.47405,12.47405,0,0,1-14.36693-2.6974,12.50753,12.50753,0,0,1-17.9222,6.40752,12.51866,12.51866,0,0,1-23.05615,6.09593,12.53007,12.53007,0,0,1-11.71458,8.10213,12.5386,12.5386,0,0,1-8.70938,11.93685A12.47951,12.47951,0,0,1,203.80486,167.58c-1.286,7.4889-2.19522,13.465-2.19522,13.465s-2.50082-4.0843-5.47893-9.87543c-.384.03544-.77154.05883-1.165.05883a12.52807,12.52807,0,0,1-7.74156-22.38487q-.23439-1.00266-.41082-1.974A12.499,12.499,0,0,1,182.42884,137.35727Z"/><path fill="#38101b" d="M273.76677 177.01489c4.98194 0 4.99019-7.74251 0-7.74251-4.98194 0-4.99019 7.74251 0 7.74251zM221.22093 177.01489c4.98193 0 4.99018-7.74251 0-7.74251-4.98194 0-4.99019 7.74251 0 7.74251z"/><path fill="#38101b" d="M303.70084 169.52923a65.30022 65.30022 0 01-10.048 1.09961c-1.65027.07343-3.28833.11218-4.90454.14661-1.61029.03918-3.22424.04089-4.675.17071a61.29749 61.29749 0 01-10.1029-.14648 48.19145 48.19145 0 01-9.98859-1.89289 56.02785 56.02785 0 019.90094-2.16485c3.27905-.45752 6.60974-.70807 9.77051-.93878a32.38245 32.38245 0 015.26507.09112c1.69678.15485 3.36921.38251 5.02515.70038A43.83217 43.83217 0 01303.70084 169.52923zM250.01944 166.28039a44.92807 44.92807 0 00-4.94275-2.10364 42.55934 42.55934 0 00-4.90014-1.4776 40.1293 40.1293 0 00-19.64557.04944c-3.335.76563-6.684 1.79242-10.23066 2.90936a25.27678 25.27678 0 018.87751-6.73968 25.99479 25.99479 0 0111.199-2.57434 26.3666 26.3666 0 0111.19287 2.56189 22.44256 22.44256 0 014.78968 3.10126A15.97985 15.97985 0 01250.01944 166.28039zM229.20114 170.74572a62.6502 62.6502 0 01-8.02911.13806c-1.28223-.02349-2.55-.05365-3.80335.02131a17.3132 17.3132 0 00-3.90228.56738 6.45222 6.45222 0 013.49689-2.55585 12.02741 12.02741 0 014.25787-.61243 15.79292 15.79292 0 014.15772.63953A12.41126 12.41126 0 01229.20114 170.74572zM255.87792 239.33317l.2069-.02481a4.2761 4.2761 0 012.95521.721c34.93963 24.38424 52.49829-57.763 52.49829-57.763 1.3063 46.87584-20.17564 78.57923-40.92315 82.42907-5.577 1.03523-10.53222-2.24815-14.96883-2.24815-4.38981 0-9.54081 3.216-13.37115 2.44977-23.145-4.63-44.35072-46.19166-40.42065-88.941-4.09372 44.52951 43.6486 73.16185 48.8023 65.53551C251.56012 240.15486 254.27612 239.52517 255.87792 239.33317z"/><path fill="#38101b" d="M263.08,221.39311s2.7873,9.34691,0,14.429-9.7221,4.43037-11.22665-.00038c-1.74206-5.13023.77426-15.59.77426-15.59Z"/><path fill="#d7645d" d="M279.09366,217.20708s-11.56345,15.14736-24.93617,12.9899-19.72958-15.32588-19.72958-15.32588Z"/><path fill="#350313" d="M256.4885,200.39447a26.32365,26.32365,0,0,0,9.82391,2.95678,39.31529,39.31529,0,0,0,4.20233.20215c.35315-.01117.69989.00067,1.04517.01123.53528.024,1.11151.08454,1.66717.12976a24.119,24.119,0,0,1,3.27863.57251,24.59116,24.59116,0,0,1,5.95556,2.41181,23.55144,23.55144,0,0,1,5.01447,3.7478,21.41239,21.41239,0,0,1,3.83911,4.97174,15.481,15.481,0,0,1,1.2915,2.99438,10.22842,10.22842,0,0,1,.37269,1.64649c.02429.30768.032.60907.03045.8883a2.38557,2.38557,0,0,1-.17248.84852,3.54722,3.54722,0,0,0-.65277-.42542c-.23755-.10992-.45948-.20215-.67633-.28015-.48731-.17145-.89075-.31934-1.36164-.46155-.4591-.1347-.87237-.28509-1.3352-.40521-.441-.13-.856-.27246-1.30811-.38391l-4.97955-1.45984c-3.18659-.96472-6.16205-1.83185-8.96369-2.58734-.69708-.13422-1.39782-.38208-2.077-.4903-.34613-.08038-.67182-.14551-1.03839-.24707-.55671-.11432-1.112-.22735-1.66083-.3634a18.51276,18.51276,0,0,1-6.26325-2.80878,15.61486,15.61486,0,0,1-4.61785-5.03393,12.21765,12.21765,0,0,1-1.22669-3.11963A8.3168,8.3168,0,0,1,256.4885,200.39447Z"/><path fill="#350313" d="M257.64578,200.39447a8.3168,8.3168,0,0,1-.18719,3.31494,12.21765,12.21765,0,0,1-1.22669,3.11963,15.61419,15.61419,0,0,1-4.61785,5.03393,18.51276,18.51276,0,0,1-6.26325,2.80878c-.54883.136-1.10413.24908-1.66083.3634-.36657.10156-.6922.16669-1.03839.24707-.6792.10822-1.37994.35608-2.077.4903-2.80164.75549-5.7771,1.62262-8.96369,2.58734l-4.97955,1.45984c-.45215.11145-.867.2539-1.30811.38391-.46283.12012-.8761.27051-1.3352.40521-.47089.14221-.87433.2901-1.36164.46155-.21685.078-.43878.17023-.67627.28015a3.54322,3.54322,0,0,0-.65277.42542,2.38428,2.38428,0,0,1-.17254-.84852c-.00153-.27923.00616-.58062.03045-.8883a10.22213,10.22213,0,0,1,.37275-1.64649,15.47709,15.47709,0,0,1,1.29144-2.99438,21.41239,21.41239,0,0,1,3.83911-4.97174,23.55144,23.55144,0,0,1,5.01447-3.7478,24.59116,24.59116,0,0,1,5.95556-2.41181,24.119,24.119,0,0,1,3.27863-.57251c.55566-.04522,1.13189-.10577,1.66717-.12976.34528-.01056.692-.0224,1.04517-.01123a39.3138,39.3138,0,0,0,4.20233-.20215A26.32365,26.32365,0,0,0,257.64578,200.39447Z"/><path fill="#b86a55" d="M244.17852,198.79773a21.52878,21.52878,0,0,0,13.14937,6.29724c-.15485.02581-.3097.03871-.46456.05162h.92911c-.15485-.01291-.3097-.02581-.46455-.05162a21.46312,21.46312,0,0,0,12.98161-6.11658Z"/></svg>